<?xml version="1.0" encoding="UTF-8"?>
<svg width="200mm" height="200mm" version="1.1" viewBox="0 0 200 200" xmlns="http://www.w3.org/2000/svg">
 <defs>
  <clipPath id="clipPath27">
   <rect x="74.713" y="70.434" width="50" height="80.573" rx="24.318" ry="24.371" d="m 99.030535,70.433998 h 1.364925 c 13.47192,0 24.31754,10.869374 24.31754,24.370794 V 126.6362 c 0,13.50142 -10.84562,24.3708 -24.31754,24.3708 h -1.364925 c -13.471916,0 -24.317538,-10.86938 -24.317538,-24.3708 V 94.804792 c 0,-13.50142 10.845622,-24.370794 24.317538,-24.370794 z" display="none" fill="#f9f9f9" stroke-width="0"/>
   <path class="powerclip" d="m69.713 9.7135h60.573v95.573h-60.573zm29.317 60.721c-13.472 0-24.318 10.869-24.318 24.371v31.831c0 13.501 10.846 24.371 24.318 24.371h1.3649c13.472 0 24.318-10.869 24.318-24.371v-31.831c0-13.501-10.846-24.371-24.318-24.371z" fill="#f9f9f9" stroke-width="0"/>
  </clipPath>
  <clipPath id="clipPath30">
   <rect x="150.71" y="46.884" width="27.991" height="43.74" rx="13.613" ry="13.23" fill="none" stroke="#fff" stroke-width="6.319"/>
  </clipPath>
 </defs>
 <path d="m196.7 100a96.697 96.697 0 0 1-96.697 96.697 96.697 96.697 0 0 1-96.697-96.697 96.697 96.697 0 0 1 96.697-96.697 96.697 96.697 0 0 1 96.697 96.697z" fill="#f2f2f2" stroke-width="0"/>
 <g fill="none" stroke="#000">
  <path transform="rotate(45 87.075 91.309)" x="79.713493" y="19.713495" width="40.573006" height="75.573006" rx="19.732712" ry="22.858454" d="m99.446 19.713h1.1076c10.932 0 19.733 10.195 19.733 22.858v29.856c0 12.664-8.8008 22.858-19.733 22.858h-1.1076c-10.932 0-19.733-10.195-19.733-22.858v-29.856c0-12.664 8.8008-22.858 19.733-22.858z" clip-path="url(#clipPath27)" stroke-width="10"/>
  <rect transform="rotate(45)" x="118.47" y="-11.566" width="40.573" height="75.573" rx="19.733" ry="22.858" stroke-width="10"/>
  <rect transform="matrix(-.70711 -.70711 .84342 -.84342 141.5 287.62)" x="147.36" y="75.859" width="34.806" height="61.714" rx="16.928" ry="18.666" clip-path="url(#clipPath30)" stroke-width="8.3698"/>
 </g>
</svg>
