<?xml version="1.0" encoding="UTF-8"?>
<svg width="200mm" height="200mm" version="1.1" viewBox="0 0 200 200" xmlns="http://www.w3.org/2000/svg">
 <defs>
  <clipPath id="clipPath25">
   <path d="m95 35c-2.77 0-4.9997 2.2302-4.9997 5.0002v87.114l-18.884-15.846c-2.1219-1.7805-5.2635-1.5054-7.044 0.6165l-6.428 7.6605c-1.7805 2.122-1.5054 5.2635 0.6165 7.044l38.302 32.139c1.0743 0.90141 2.4094 1.2739 3.6975 1.1488 1.0688-0.0417 2.1331-0.40604 3.0194-1.1498l38.302-32.139c2.1219-1.7805 2.397-4.9221 0.6165-7.044l-6.428-7.6605c-1.7805-2.1219-4.9221-2.397-7.044-0.6165l-18.727 15.713v-86.981c0-2.77-2.2302-5.0002-5.0002-5.0002z" display="none" fill="#f9f9f9" stroke-width="0"/>
   <path class="powerclip" d="m-1.697-1.697h203.39v203.39h-203.39zm96.697 36.697c-2.77 0-4.9997 2.2302-4.9997 5.0002v87.114l-18.884-15.846c-2.1219-1.7805-5.2635-1.5054-7.044 0.6165l-6.428 7.6605c-1.7805 2.122-1.5054 5.2635 0.6165 7.044l38.302 32.139c1.0743 0.90141 2.4094 1.2739 3.6975 1.1488 1.0688-0.0417 2.1331-0.40604 3.0194-1.1498l38.302-32.139c2.1219-1.7805 2.397-4.9221 0.6165-7.044l-6.428-7.6605c-1.7805-2.1219-4.9221-2.397-7.044-0.6165l-18.727 15.713v-86.981c0-2.77-2.2302-5.0002-5.0002-5.0002z" fill="#f9f9f9" stroke-width="0"/>
  </clipPath>
 </defs>
 <path d="m196.7 100a96.697 96.697 0 0 1-96.697 96.697 96.697 96.697 0 0 1-96.697-96.697 96.697 96.697 0 0 1 96.697-96.697 96.697 96.697 0 0 1 96.697 96.697z" clip-path="url(#clipPath25)" fill="#f9f9f9" stroke-width="0"/>
</svg>
